<?xml version="1.0" encoding="iso-8859-1"?>
<!-- Uploaded to: SVG Repo, www.svgrepo.com, Generator: SVG Repo Mixer Tools -->
<!DOCTYPE svg PUBLIC "-//W3C//DTD SVG 1.1//EN" "http://www.w3.org/Graphics/SVG/1.1/DTD/svg11.dtd">
<svg fill="#000000" version="1.1" id="Capa_1" xmlns="http://www.w3.org/2000/svg" xmlns:xlink="http://www.w3.org/1999/xlink" 
	 width="800px" height="800px" viewBox="0 0 40.666 40.666"
	 xml:space="preserve">
<g>
	<path d="M39.166,10.666H1.5c-0.829,0-1.5,0.672-1.5,1.5V28.5C0,29.328,0.671,30,1.5,30h37.666c0.829,0,1.5-0.672,1.5-1.5V12.166
		C40.666,11.338,39.995,10.666,39.166,10.666z M37.666,27H3V13.666h34.666V27z M32.91,24.5H7.756v-2H32.91V24.5z M6.708,24.5h-2v-2
		h2V24.5z M6.708,21.25h-2v-2h2V21.25z M9.833,21.25h-2v-2h2V21.25z M12.958,21.25h-2v-2h2V21.25z M16.083,21.25h-2v-2h2V21.25z
		 M19.208,21.25h-2v-2h2V21.25z M22.333,21.25h-2v-2h2V21.25z M25.458,21.25h-2v-2h2V21.25z M28.583,21.25h-2v-2h2V21.25z
		 M31.708,21.25h-2v-2h2V21.25z M6.708,18.166h-2v-2h2V18.166z M9.833,18.166h-2v-2h2V18.166z M12.958,18.166h-2v-2h2V18.166z
		 M16.083,18.166h-2v-2h2V18.166z M19.208,18.166h-2v-2h2V18.166z M22.333,18.166h-2v-2h2V18.166z M25.458,18.166h-2v-2h2V18.166z
		 M28.583,18.166h-2v-2h2V18.166z M31.708,18.166h-2v-2h2V18.166z M33.958,22.5h2v2h-2V22.5z M35.938,21.25h-3.104v-2h1.125v-3.084
		h2v3.709h-0.021V21.25z"/>
</g>
</svg>